# xmcd CD database file
#
# Track frame offsets:
#	150
#	20583
#	43027
#	62452
#	81056
#	97429
#	112528
#	134658
#	152781
#	166582
#	179506
#	197503
#	206480
#
# Disc length: 2978 seconds
#
# Revision: 0
# Processed by: cddbd v1.5.2PL0 Copyright (c) Steve Scherf et al.
# Submitted via: CDex 1.70beta2
#
DISCID=a80ba00d
DTITLE=Byron and Onra - The Big Pay Back
DYEAR=1900
DGENRE=Jazz
TTITLE0=It's You(intro)
TTITLE1=Dance With Me
TTITLE2=The Return
TTITLE3=Sleeping Pills(feat. Peter Hadar)
TTITLE4=Word Up
TTITLE5=Blue Berry Weed(feat. Isis)
TTITLE6=Mr. Suave
TTITLE7=Love(feat. Neco Redd)
TTITLE8=Carribean Vibes(feat. Julien Marc)
TTITLE9=Blush(feat. Isis)
TTITLE10=Cosmic Take Off
TTITLE11=Words From The Wish(outro)
TTITLE12=The World(feat. Gren)
EXTD=
EXTT0=
EXTT1=
EXTT2=
EXTT3=
EXTT4=
EXTT5=
EXTT6=
EXTT7=
EXTT8=
EXTT9=
EXTT10=
EXTT11=
EXTT12=
PLAYORDER=
